# Blender 3.5.1
# www.blender.org
mtllib disc_mesh.mtl
o Cylinder
v 0.000000 0.000000 -1.000000
v 0.000000 0.000000 0.000000
v 0.382683 0.000000 -0.923880
v 0.000000 0.000000 0.000000
v 0.707107 0.000000 -0.707107
v 0.000000 0.000000 0.000000
v 0.923880 0.000000 -0.382683
v 0.000000 0.000000 0.000000
v 1.000000 0.000000 0.000000
v 0.000000 0.000000 0.000000
v 0.923880 0.000000 0.382683
v 0.000000 0.000000 0.000000
v 0.707107 0.000000 0.707107
v 0.000000 0.000000 0.000000
v 0.382683 0.000000 0.923880
v 0.000000 0.000000 0.000000
v 0.000000 0.000000 1.000000
v 0.000000 0.000000 0.000000
v -0.382683 0.000000 0.923880
v 0.000000 0.000000 0.000000
v -0.707107 0.000000 0.707107
v 0.000000 0.000000 0.000000
v -0.923880 0.000000 0.382683
v 0.000000 0.000000 0.000000
v -1.000000 0.000000 0.000000
v 0.000000 0.000000 0.000000
v -0.923880 0.000000 -0.382683
v 0.000000 0.000000 0.000000
v -0.707107 0.000000 -0.707107
v 0.000000 0.000000 0.000000
v -0.382683 0.000000 -0.923880
v 0.000000 0.000000 0.000000
v 0.000000 0.000000 -0.833333
v 0.000000 0.000000 -0.666667
v 0.000000 0.000000 -0.500000
v 0.000000 0.000000 -0.333333
v 0.000000 0.000000 -0.166667
v 0.063781 0.000000 -0.153980
v 0.127561 0.000000 -0.307960
v 0.191342 0.000000 -0.461940
v 0.255122 0.000000 -0.615920
v 0.318903 0.000000 -0.769900
v 0.117851 0.000000 -0.117851
v 0.235702 0.000000 -0.235702
v 0.353553 0.000000 -0.353553
v 0.471405 0.000000 -0.471405
v 0.589256 0.000000 -0.589256
v 0.153980 0.000000 -0.063781
v 0.307960 0.000000 -0.127561
v 0.461940 0.000000 -0.191342
v 0.615920 0.000000 -0.255122
v 0.769900 0.000000 -0.318903
v 0.166667 0.000000 0.000000
v 0.333333 0.000000 0.000000
v 0.500000 0.000000 0.000000
v 0.666667 0.000000 0.000000
v 0.833333 0.000000 0.000000
v 0.153980 0.000000 0.063781
v 0.307960 0.000000 0.127561
v 0.461940 0.000000 0.191342
v 0.615920 0.000000 0.255122
v 0.769900 0.000000 0.318903
v 0.117851 0.000000 0.117851
v 0.235702 0.000000 0.235702
v 0.353553 0.000000 0.353553
v 0.471405 0.000000 0.471405
v 0.589256 0.000000 0.589256
v 0.063781 0.000000 0.153980
v 0.127561 0.000000 0.307960
v 0.191342 0.000000 0.461940
v 0.255122 0.000000 0.615920
v 0.318903 0.000000 0.769900
v 0.000000 0.000000 0.166667
v 0.000000 0.000000 0.333333
v 0.000000 0.000000 0.500000
v 0.000000 0.000000 0.666667
v 0.000000 0.000000 0.833333
v -0.063781 0.000000 0.153980
v -0.127561 0.000000 0.307960
v -0.191342 0.000000 0.461940
v -0.255122 0.000000 0.615920
v -0.318903 0.000000 0.769900
v -0.117851 0.000000 0.117851
v -0.235702 0.000000 0.235702
v -0.353553 0.000000 0.353553
v -0.471405 0.000000 0.471405
v -0.589256 0.000000 0.589256
v -0.153980 0.000000 0.063781
v -0.307960 0.000000 0.127561
v -0.461940 0.000000 0.191342
v -0.615920 0.000000 0.255122
v -0.769900 0.000000 0.318903
v -0.166667 0.000000 0.000000
v -0.333333 0.000000 0.000000
v -0.500000 0.000000 0.000000
v -0.666667 0.000000 0.000000
v -0.833333 0.000000 0.000000
v -0.153980 0.000000 -0.063781
v -0.307960 0.000000 -0.127561
v -0.461940 0.000000 -0.191342
v -0.615920 0.000000 -0.255122
v -0.769900 0.000000 -0.318903
v -0.117851 0.000000 -0.117851
v -0.235702 0.000000 -0.235702
v -0.353553 0.000000 -0.353553
v -0.471405 0.000000 -0.471405
v -0.589256 0.000000 -0.589256
v -0.063781 0.000000 -0.153980
v -0.127561 0.000000 -0.307960
v -0.191342 0.000000 -0.461940
v -0.255122 0.000000 -0.615920
v -0.318903 0.000000 -0.769900
vn -0.0000 1.0000 -0.0000
vt 1.000000 1.000000
vt 0.000000 1.000000
vt 0.000000 0.000000
vt 1.000000 0.000000
vt 0.062500 1.000000
vt 0.062500 0.000000
vt 0.125000 1.000000
vt 0.125000 0.000000
vt 0.187500 1.000000
vt 0.187500 0.000000
vt 0.250000 1.000000
vt 0.250000 0.000000
vt 0.312500 1.000000
vt 0.312500 0.000000
vt 0.375000 1.000000
vt 0.375000 0.000000
vt 0.437500 1.000000
vt 0.437500 0.000000
vt 0.500000 1.000000
vt 0.500000 0.000000
vt 0.562500 1.000000
vt 0.562500 0.000000
vt 0.625000 1.000000
vt 0.625000 0.000000
vt 0.687500 1.000000
vt 0.687500 0.000000
vt 0.750000 1.000000
vt 0.750000 0.000000
vt 0.812500 1.000000
vt 0.812500 0.000000
vt 0.875000 1.000000
vt 0.875000 0.000000
vt 0.937500 1.000000
vt 0.937500 0.000000
vt 1.000000 0.833333
vt 0.000000 0.833333
vt 1.000000 0.666667
vt 0.000000 0.666667
vt 1.000000 0.500000
vt 0.000000 0.500000
vt 1.000000 0.333333
vt 0.000000 0.333333
vt 1.000000 0.166667
vt 0.000000 0.166667
vt 0.062500 0.166667
vt 0.062500 0.333333
vt 0.062500 0.500000
vt 0.062500 0.666667
vt 0.062500 0.833333
vt 0.125000 0.166667
vt 0.125000 0.333333
vt 0.125000 0.500000
vt 0.125000 0.666667
vt 0.125000 0.833333
vt 0.187500 0.166667
vt 0.187500 0.333333
vt 0.187500 0.500000
vt 0.187500 0.666667
vt 0.187500 0.833333
vt 0.250000 0.166667
vt 0.250000 0.333333
vt 0.250000 0.500000
vt 0.250000 0.666667
vt 0.250000 0.833333
vt 0.312500 0.166667
vt 0.312500 0.333333
vt 0.312500 0.500000
vt 0.312500 0.666667
vt 0.312500 0.833333
vt 0.375000 0.166667
vt 0.375000 0.333333
vt 0.375000 0.500000
vt 0.375000 0.666667
vt 0.375000 0.833333
vt 0.437500 0.166667
vt 0.437500 0.333333
vt 0.437500 0.500000
vt 0.437500 0.666667
vt 0.437500 0.833333
vt 0.500000 0.166667
vt 0.500000 0.333333
vt 0.500000 0.500000
vt 0.500000 0.666667
vt 0.500000 0.833333
vt 0.562500 0.166667
vt 0.562500 0.333333
vt 0.562500 0.500000
vt 0.562500 0.666667
vt 0.562500 0.833333
vt 0.625000 0.166667
vt 0.625000 0.333333
vt 0.625000 0.500000
vt 0.625000 0.666667
vt 0.625000 0.833333
vt 0.687500 0.166667
vt 0.687500 0.333333
vt 0.687500 0.500000
vt 0.687500 0.666667
vt 0.687500 0.833333
vt 0.750000 0.166667
vt 0.750000 0.333333
vt 0.750000 0.500000
vt 0.750000 0.666667
vt 0.750000 0.833333
vt 0.812500 0.166667
vt 0.812500 0.333333
vt 0.812500 0.500000
vt 0.812500 0.666667
vt 0.812500 0.833333
vt 0.875000 0.166667
vt 0.875000 0.333333
vt 0.875000 0.500000
vt 0.875000 0.666667
vt 0.875000 0.833333
vt 0.937500 0.166667
vt 0.937500 0.333333
vt 0.937500 0.500000
vt 0.937500 0.666667
vt 0.937500 0.833333
s 0
usemtl Material.001
f 37/44/1 2/3/1 4/6/1 38/45/1
f 38/45/1 4/6/1 6/8/1 43/50/1
f 43/50/1 6/8/1 8/10/1 48/55/1
f 48/55/1 8/10/1 10/12/1 53/60/1
f 53/60/1 10/12/1 12/14/1 58/65/1
f 58/65/1 12/14/1 14/16/1 63/70/1
f 63/70/1 14/16/1 16/18/1 68/75/1
f 68/75/1 16/18/1 18/20/1 73/80/1
f 73/80/1 18/20/1 20/22/1 78/85/1
f 78/85/1 20/22/1 22/24/1 83/90/1
f 83/90/1 22/24/1 24/26/1 88/95/1
f 88/95/1 24/26/1 26/28/1 93/100/1
f 93/100/1 26/28/1 28/30/1 98/105/1
f 98/105/1 28/30/1 30/32/1 103/110/1
f 103/110/1 30/32/1 32/34/1 108/115/1
f 108/115/1 32/34/1 2/4/1 37/43/1
f 31/33/1 112/119/1 33/35/1 1/1/1
f 112/119/1 111/118/1 34/37/1 33/35/1
f 111/118/1 110/117/1 35/39/1 34/37/1
f 110/117/1 109/116/1 36/41/1 35/39/1
f 109/116/1 108/115/1 37/43/1 36/41/1
f 29/31/1 107/114/1 112/119/1 31/33/1
f 107/114/1 106/113/1 111/118/1 112/119/1
f 106/113/1 105/112/1 110/117/1 111/118/1
f 105/112/1 104/111/1 109/116/1 110/117/1
f 104/111/1 103/110/1 108/115/1 109/116/1
f 27/29/1 102/109/1 107/114/1 29/31/1
f 102/109/1 101/108/1 106/113/1 107/114/1
f 101/108/1 100/107/1 105/112/1 106/113/1
f 100/107/1 99/106/1 104/111/1 105/112/1
f 99/106/1 98/105/1 103/110/1 104/111/1
f 25/27/1 97/104/1 102/109/1 27/29/1
f 97/104/1 96/103/1 101/108/1 102/109/1
f 96/103/1 95/102/1 100/107/1 101/108/1
f 95/102/1 94/101/1 99/106/1 100/107/1
f 94/101/1 93/100/1 98/105/1 99/106/1
f 23/25/1 92/99/1 97/104/1 25/27/1
f 92/99/1 91/98/1 96/103/1 97/104/1
f 91/98/1 90/97/1 95/102/1 96/103/1
f 90/97/1 89/96/1 94/101/1 95/102/1
f 89/96/1 88/95/1 93/100/1 94/101/1
f 21/23/1 87/94/1 92/99/1 23/25/1
f 87/94/1 86/93/1 91/98/1 92/99/1
f 86/93/1 85/92/1 90/97/1 91/98/1
f 85/92/1 84/91/1 89/96/1 90/97/1
f 84/91/1 83/90/1 88/95/1 89/96/1
f 19/21/1 82/89/1 87/94/1 21/23/1
f 82/89/1 81/88/1 86/93/1 87/94/1
f 81/88/1 80/87/1 85/92/1 86/93/1
f 80/87/1 79/86/1 84/91/1 85/92/1
f 79/86/1 78/85/1 83/90/1 84/91/1
f 17/19/1 77/84/1 82/89/1 19/21/1
f 77/84/1 76/83/1 81/88/1 82/89/1
f 76/83/1 75/82/1 80/87/1 81/88/1
f 75/82/1 74/81/1 79/86/1 80/87/1
f 74/81/1 73/80/1 78/85/1 79/86/1
f 15/17/1 72/79/1 77/84/1 17/19/1
f 72/79/1 71/78/1 76/83/1 77/84/1
f 71/78/1 70/77/1 75/82/1 76/83/1
f 70/77/1 69/76/1 74/81/1 75/82/1
f 69/76/1 68/75/1 73/80/1 74/81/1
f 13/15/1 67/74/1 72/79/1 15/17/1
f 67/74/1 66/73/1 71/78/1 72/79/1
f 66/73/1 65/72/1 70/77/1 71/78/1
f 65/72/1 64/71/1 69/76/1 70/77/1
f 64/71/1 63/70/1 68/75/1 69/76/1
f 11/13/1 62/69/1 67/74/1 13/15/1
f 62/69/1 61/68/1 66/73/1 67/74/1
f 61/68/1 60/67/1 65/72/1 66/73/1
f 60/67/1 59/66/1 64/71/1 65/72/1
f 59/66/1 58/65/1 63/70/1 64/71/1
f 9/11/1 57/64/1 62/69/1 11/13/1
f 57/64/1 56/63/1 61/68/1 62/69/1
f 56/63/1 55/62/1 60/67/1 61/68/1
f 55/62/1 54/61/1 59/66/1 60/67/1
f 54/61/1 53/60/1 58/65/1 59/66/1
f 7/9/1 52/59/1 57/64/1 9/11/1
f 52/59/1 51/58/1 56/63/1 57/64/1
f 51/58/1 50/57/1 55/62/1 56/63/1
f 50/57/1 49/56/1 54/61/1 55/62/1
f 49/56/1 48/55/1 53/60/1 54/61/1
f 5/7/1 47/54/1 52/59/1 7/9/1
f 47/54/1 46/53/1 51/58/1 52/59/1
f 46/53/1 45/52/1 50/57/1 51/58/1
f 45/52/1 44/51/1 49/56/1 50/57/1
f 44/51/1 43/50/1 48/55/1 49/56/1
f 3/5/1 42/49/1 47/54/1 5/7/1
f 42/49/1 41/48/1 46/53/1 47/54/1
f 41/48/1 40/47/1 45/52/1 46/53/1
f 40/47/1 39/46/1 44/51/1 45/52/1
f 39/46/1 38/45/1 43/50/1 44/51/1
f 1/2/1 33/36/1 42/49/1 3/5/1
f 33/36/1 34/38/1 41/48/1 42/49/1
f 34/38/1 35/40/1 40/47/1 41/48/1
f 35/40/1 36/42/1 39/46/1 40/47/1
f 36/42/1 37/44/1 38/45/1 39/46/1
